<mxfile host="app.diagrams.net" modified="2024-06-03T05:35:15.910Z" agent="Mozilla/5.0 (Windows NT 10.0; Win64; x64) AppleWebKit/537.36 (KHTML, like Gecko) Chrome/124.0.0.0 Safari/537.36" etag="FAG8g_1nR3Mk45vXfPb3" version="24.4.7" type="github" pages="7">
  <diagram name="Overall" id="haRxQdb0Rc9V8VVovbI0">
    <mxGraphModel dx="1687" dy="878" grid="1" gridSize="10" guides="1" tooltips="1" connect="1" arrows="1" fold="1" page="1" pageScale="1" pageWidth="850" pageHeight="1100" math="0" shadow="0">
      <root>
        <mxCell id="0" />
        <mxCell id="1" parent="0" />
        <mxCell id="_ZUfTsOpJ8JnZV1sAFwO-5" style="edgeStyle=orthogonalEdgeStyle;rounded=0;orthogonalLoop=1;jettySize=auto;html=1;fillColor=#f8cecc;strokeColor=#b85450;" parent="1" source="fft_ZOHK23znVb5S3Era-1" target="Q34k3Zjby_QctrCtlyAC-1" edge="1">
          <mxGeometry relative="1" as="geometry">
            <mxPoint x="500" y="743" as="targetPoint" />
            <Array as="points">
              <mxPoint x="730" y="631" />
              <mxPoint x="730" y="631" />
            </Array>
          </mxGeometry>
        </mxCell>
        <mxCell id="2IHjiivvs32n4sneykXm-7" value="Text" style="edgeLabel;html=1;align=center;verticalAlign=middle;resizable=0;points=[];" parent="_ZUfTsOpJ8JnZV1sAFwO-5" vertex="1" connectable="0">
          <mxGeometry x="-0.18" relative="1" as="geometry">
            <mxPoint as="offset" />
          </mxGeometry>
        </mxCell>
        <mxCell id="2IHjiivvs32n4sneykXm-10" value="3. Publish" style="edgeLabel;html=1;align=center;verticalAlign=middle;resizable=0;points=[];" parent="_ZUfTsOpJ8JnZV1sAFwO-5" vertex="1" connectable="0">
          <mxGeometry x="-0.12" y="1" relative="1" as="geometry">
            <mxPoint as="offset" />
          </mxGeometry>
        </mxCell>
        <mxCell id="fft_ZOHK23znVb5S3Era-1" value="" style="rounded=0;whiteSpace=wrap;html=1;fillColor=#d5e8d4;strokeColor=#82b366;" parent="1" vertex="1">
          <mxGeometry x="730" y="450" width="286" height="360" as="geometry" />
        </mxCell>
        <mxCell id="fft_ZOHK23znVb5S3Era-2" value="Applications" style="rounded=0;whiteSpace=wrap;html=1;fillColor=#f5f5f5;verticalAlign=top;fontColor=#333333;strokeColor=#666666;" parent="1" vertex="1">
          <mxGeometry x="27.5" y="466" width="215" height="229" as="geometry" />
        </mxCell>
        <mxCell id="fft_ZOHK23znVb5S3Era-3" value="Mobile" style="rounded=1;whiteSpace=wrap;html=1;fillColor=#dae8fc;strokeColor=#6c8ebf;" parent="1" vertex="1">
          <mxGeometry x="75" y="511" width="120" height="60" as="geometry" />
        </mxCell>
        <mxCell id="fft_ZOHK23znVb5S3Era-4" value="Web" style="rounded=1;whiteSpace=wrap;html=1;fillColor=#dae8fc;strokeColor=#6c8ebf;" parent="1" vertex="1">
          <mxGeometry x="75" y="601" width="120" height="60" as="geometry" />
        </mxCell>
        <mxCell id="fft_ZOHK23znVb5S3Era-5" value="Hub" style="rounded=1;whiteSpace=wrap;html=1;fillColor=#dae8fc;strokeColor=#6c8ebf;" parent="1" vertex="1">
          <mxGeometry x="40" y="849" width="120" height="60" as="geometry" />
        </mxCell>
        <mxCell id="G1ngEh4JhaTeKRXIfl2Z-16" style="edgeStyle=orthogonalEdgeStyle;rounded=0;orthogonalLoop=1;jettySize=auto;html=1;entryX=0.75;entryY=1;entryDx=0;entryDy=0;exitX=1;exitY=0.5;exitDx=0;exitDy=0;strokeColor=#3399FF;" parent="1" source="fft_ZOHK23znVb5S3Era-7" target="fft_ZOHK23znVb5S3Era-1" edge="1">
          <mxGeometry relative="1" as="geometry">
            <mxPoint x="750" y="870" as="targetPoint" />
            <mxPoint x="260" y="960" as="sourcePoint" />
          </mxGeometry>
        </mxCell>
        <mxCell id="2IHjiivvs32n4sneykXm-16" value="Pull Info" style="edgeLabel;html=1;align=center;verticalAlign=middle;resizable=0;points=[];" parent="G1ngEh4JhaTeKRXIfl2Z-16" vertex="1" connectable="0">
          <mxGeometry x="-0.0605" y="-2" relative="1" as="geometry">
            <mxPoint as="offset" />
          </mxGeometry>
        </mxCell>
        <mxCell id="fft_ZOHK23znVb5S3Era-7" value="Partner" style="rounded=1;whiteSpace=wrap;html=1;fillColor=#dae8fc;strokeColor=#6c8ebf;" parent="1" vertex="1">
          <mxGeometry x="40" y="930" width="120" height="60" as="geometry" />
        </mxCell>
        <mxCell id="fft_ZOHK23znVb5S3Era-8" value="Hub APIs" style="rounded=1;whiteSpace=wrap;html=1;" parent="1" vertex="1">
          <mxGeometry x="886" y="470" width="120" height="60" as="geometry" />
        </mxCell>
        <mxCell id="fft_ZOHK23znVb5S3Era-9" value="Receiver APIs" style="rounded=1;whiteSpace=wrap;html=1;" parent="1" vertex="1">
          <mxGeometry x="746" y="560" width="120" height="60" as="geometry" />
        </mxCell>
        <mxCell id="fft_ZOHK23znVb5S3Era-10" value="Admin/License APIs" style="rounded=1;whiteSpace=wrap;html=1;" parent="1" vertex="1">
          <mxGeometry x="746" y="640" width="120" height="60" as="geometry" />
        </mxCell>
        <mxCell id="fft_ZOHK23znVb5S3Era-11" value="Hub Telemetry&lt;div&gt;APIs&lt;/div&gt;" style="rounded=1;whiteSpace=wrap;html=1;" parent="1" vertex="1">
          <mxGeometry x="746" y="470" width="120" height="60" as="geometry" />
        </mxCell>
        <mxCell id="fft_ZOHK23znVb5S3Era-13" value="Provisioning&lt;div&gt;APIs&lt;/div&gt;" style="rounded=1;whiteSpace=wrap;html=1;" parent="1" vertex="1">
          <mxGeometry x="886" y="560" width="120" height="60" as="geometry" />
        </mxCell>
        <mxCell id="fft_ZOHK23znVb5S3Era-14" value="Scheduling APIs" style="rounded=1;whiteSpace=wrap;html=1;" parent="1" vertex="1">
          <mxGeometry x="886" y="640" width="120" height="60" as="geometry" />
        </mxCell>
        <mxCell id="fft_ZOHK23znVb5S3Era-15" value="Firmware APIs" style="rounded=1;whiteSpace=wrap;html=1;" parent="1" vertex="1">
          <mxGeometry x="746" y="720" width="120" height="60" as="geometry" />
        </mxCell>
        <mxCell id="fft_ZOHK23znVb5S3Era-16" value="ElasticSearch APIs" style="rounded=1;whiteSpace=wrap;html=1;" parent="1" vertex="1">
          <mxGeometry x="886" y="720" width="120" height="60" as="geometry" />
        </mxCell>
        <mxCell id="fft_ZOHK23znVb5S3Era-17" value="SSE Server" style="rounded=1;whiteSpace=wrap;html=1;fillColor=#fff2cc;strokeColor=#d6b656;" parent="1" vertex="1">
          <mxGeometry x="345" y="466" width="80" height="310" as="geometry" />
        </mxCell>
        <mxCell id="fft_ZOHK23znVb5S3Era-18" style="edgeStyle=orthogonalEdgeStyle;rounded=0;orthogonalLoop=1;jettySize=auto;html=1;exitX=0.5;exitY=1;exitDx=0;exitDy=0;" parent="1" source="fft_ZOHK23znVb5S3Era-2" target="fft_ZOHK23znVb5S3Era-2" edge="1">
          <mxGeometry relative="1" as="geometry" />
        </mxCell>
        <mxCell id="2IHjiivvs32n4sneykXm-8" style="edgeStyle=orthogonalEdgeStyle;rounded=0;orthogonalLoop=1;jettySize=auto;html=1;exitX=1;exitY=0.5;exitDx=0;exitDy=0;entryX=0.25;entryY=1;entryDx=0;entryDy=0;strokeColor=#3399FF;" parent="1" source="fft_ZOHK23znVb5S3Era-22" target="fft_ZOHK23znVb5S3Era-1" edge="1">
          <mxGeometry relative="1" as="geometry" />
        </mxCell>
        <mxCell id="2IHjiivvs32n4sneykXm-9" value="2. Update" style="edgeLabel;html=1;align=center;verticalAlign=middle;resizable=0;points=[];" parent="2IHjiivvs32n4sneykXm-8" vertex="1" connectable="0">
          <mxGeometry x="-0.0027" relative="1" as="geometry">
            <mxPoint y="1" as="offset" />
          </mxGeometry>
        </mxCell>
        <mxCell id="fft_ZOHK23znVb5S3Era-22" value="Web&lt;div&gt;Sockets&lt;/div&gt;&lt;div&gt;Server&lt;/div&gt;" style="rounded=1;whiteSpace=wrap;html=1;fillColor=#fff2cc;strokeColor=#d6b656;" parent="1" vertex="1">
          <mxGeometry x="410" y="850" width="90" height="59" as="geometry" />
        </mxCell>
        <mxCell id="n79Byt1YTtOv4_WPGVGu-1" value="Backend services&amp;nbsp;" style="text;html=1;align=center;verticalAlign=middle;whiteSpace=wrap;rounded=0;" parent="1" vertex="1">
          <mxGeometry x="810" y="420" width="120" height="30" as="geometry" />
        </mxCell>
        <mxCell id="G1ngEh4JhaTeKRXIfl2Z-9" value="" style="endArrow=classic;html=1;rounded=0;exitX=0;exitY=0.25;exitDx=0;exitDy=0;strokeColor=#b85450;fillColor=#f8cecc;" parent="1" source="fft_ZOHK23znVb5S3Era-17" edge="1">
          <mxGeometry width="50" height="50" relative="1" as="geometry">
            <mxPoint x="430" y="550" as="sourcePoint" />
            <mxPoint x="195" y="541" as="targetPoint" />
          </mxGeometry>
        </mxCell>
        <mxCell id="G1ngEh4JhaTeKRXIfl2Z-10" value="5. SSE&lt;div&gt;for&lt;/div&gt;&lt;div&gt;notifications&lt;/div&gt;" style="edgeLabel;html=1;align=center;verticalAlign=middle;resizable=0;points=[];" parent="G1ngEh4JhaTeKRXIfl2Z-9" vertex="1" connectable="0">
          <mxGeometry x="-0.0048" y="-1" relative="1" as="geometry">
            <mxPoint as="offset" />
          </mxGeometry>
        </mxCell>
        <mxCell id="G1ngEh4JhaTeKRXIfl2Z-11" value="" style="endArrow=classic;html=1;rounded=0;exitX=-0.037;exitY=0.529;exitDx=0;exitDy=0;exitPerimeter=0;entryX=1;entryY=0.5;entryDx=0;entryDy=0;strokeColor=#b85450;fillColor=#f8cecc;" parent="1" source="fft_ZOHK23znVb5S3Era-17" target="fft_ZOHK23znVb5S3Era-4" edge="1">
          <mxGeometry width="50" height="50" relative="1" as="geometry">
            <mxPoint x="400" y="623" as="sourcePoint" />
            <mxPoint x="199" y="619" as="targetPoint" />
          </mxGeometry>
        </mxCell>
        <mxCell id="G1ngEh4JhaTeKRXIfl2Z-12" value="5. SSE&lt;div&gt;for&lt;/div&gt;&lt;div&gt;notifications&lt;/div&gt;" style="edgeLabel;html=1;align=center;verticalAlign=middle;resizable=0;points=[];" parent="G1ngEh4JhaTeKRXIfl2Z-11" vertex="1" connectable="0">
          <mxGeometry x="-0.0048" y="-1" relative="1" as="geometry">
            <mxPoint as="offset" />
          </mxGeometry>
        </mxCell>
        <mxCell id="_ZUfTsOpJ8JnZV1sAFwO-4" style="edgeStyle=orthogonalEdgeStyle;rounded=0;orthogonalLoop=1;jettySize=auto;html=1;strokeColor=#b85450;fillColor=#f8cecc;" parent="1" target="fft_ZOHK23znVb5S3Era-17" edge="1">
          <mxGeometry relative="1" as="geometry">
            <mxPoint x="526" y="621" as="sourcePoint" />
            <Array as="points">
              <mxPoint x="470" y="621" />
              <mxPoint x="470" y="621" />
            </Array>
          </mxGeometry>
        </mxCell>
        <mxCell id="2IHjiivvs32n4sneykXm-6" value="4. Broadcast" style="edgeLabel;html=1;align=center;verticalAlign=middle;resizable=0;points=[];" parent="_ZUfTsOpJ8JnZV1sAFwO-4" vertex="1" connectable="0">
          <mxGeometry x="0.0495" y="-3" relative="1" as="geometry">
            <mxPoint as="offset" />
          </mxGeometry>
        </mxCell>
        <mxCell id="Q34k3Zjby_QctrCtlyAC-6" style="edgeStyle=orthogonalEdgeStyle;rounded=0;orthogonalLoop=1;jettySize=auto;html=1;entryX=0.75;entryY=0;entryDx=0;entryDy=0;strokeColor=#6c8ebf;fillColor=#dae8fc;" parent="1" source="Q34k3Zjby_QctrCtlyAC-1" target="fft_ZOHK23znVb5S3Era-22" edge="1">
          <mxGeometry relative="1" as="geometry">
            <Array as="points">
              <mxPoint x="580" y="770" />
              <mxPoint x="478" y="770" />
            </Array>
          </mxGeometry>
        </mxCell>
        <mxCell id="2IHjiivvs32n4sneykXm-5" value="4. Broadcast" style="edgeLabel;html=1;align=center;verticalAlign=middle;resizable=0;points=[];" parent="Q34k3Zjby_QctrCtlyAC-6" vertex="1" connectable="0">
          <mxGeometry x="-0.1823" y="3" relative="1" as="geometry">
            <mxPoint as="offset" />
          </mxGeometry>
        </mxCell>
        <mxCell id="Q34k3Zjby_QctrCtlyAC-1" value="Redis Cache" style="image;sketch=0;aspect=fixed;html=1;points=[];align=center;fontSize=12;image=img/lib/mscae/Azure_Cache_for_Redis.svg;" parent="1" vertex="1">
          <mxGeometry x="530" y="581" width="100" height="100" as="geometry" />
        </mxCell>
        <mxCell id="2IHjiivvs32n4sneykXm-14" value="" style="endArrow=classic;startArrow=classic;html=1;rounded=0;entryX=0;entryY=0.5;entryDx=0;entryDy=0;exitX=1;exitY=0.5;exitDx=0;exitDy=0;fillColor=#dae8fc;strokeColor=#6c8ebf;" parent="1" source="fft_ZOHK23znVb5S3Era-5" target="fft_ZOHK23znVb5S3Era-22" edge="1">
          <mxGeometry width="50" height="50" relative="1" as="geometry">
            <mxPoint x="210" y="840" as="sourcePoint" />
            <mxPoint x="260" y="790" as="targetPoint" />
            <Array as="points" />
          </mxGeometry>
        </mxCell>
        <mxCell id="2IHjiivvs32n4sneykXm-15" value="1. Socket Connection" style="edgeLabel;html=1;align=center;verticalAlign=middle;resizable=0;points=[];" parent="2IHjiivvs32n4sneykXm-14" vertex="1" connectable="0">
          <mxGeometry x="-0.0079" y="-2" relative="1" as="geometry">
            <mxPoint as="offset" />
          </mxGeometry>
        </mxCell>
        <mxCell id="dzu2BiPqzygGuVtwU730-1" style="edgeStyle=orthogonalEdgeStyle;rounded=0;orthogonalLoop=1;jettySize=auto;html=1;exitX=0.75;exitY=0;exitDx=0;exitDy=0;entryX=0;entryY=0.5;entryDx=0;entryDy=0;fillColor=#f8cecc;strokeColor=#b85450;" edge="1" parent="1" target="dzu2BiPqzygGuVtwU730-5" source="fft_ZOHK23znVb5S3Era-2">
          <mxGeometry relative="1" as="geometry">
            <mxPoint x="130" y="365" as="sourcePoint" />
            <Array as="points">
              <mxPoint x="189" y="340" />
            </Array>
          </mxGeometry>
        </mxCell>
        <mxCell id="dzu2BiPqzygGuVtwU730-2" value="1. Login" style="edgeLabel;html=1;align=center;verticalAlign=middle;resizable=0;points=[];" vertex="1" connectable="0" parent="dzu2BiPqzygGuVtwU730-1">
          <mxGeometry x="-0.1686" relative="1" as="geometry">
            <mxPoint as="offset" />
          </mxGeometry>
        </mxCell>
        <mxCell id="dzu2BiPqzygGuVtwU730-3" style="edgeStyle=orthogonalEdgeStyle;rounded=0;orthogonalLoop=1;jettySize=auto;html=1;exitX=1;exitY=0.5;exitDx=0;exitDy=0;entryX=0.75;entryY=0;entryDx=0;entryDy=0;fillColor=#f8cecc;strokeColor=#b85450;" edge="1" parent="1" source="dzu2BiPqzygGuVtwU730-5" target="fft_ZOHK23znVb5S3Era-1">
          <mxGeometry relative="1" as="geometry">
            <Array as="points">
              <mxPoint x="945" y="340" />
            </Array>
            <mxPoint x="330.03999999999996" y="254" as="sourcePoint" />
            <mxPoint x="820" y="330" as="targetPoint" />
          </mxGeometry>
        </mxCell>
        <mxCell id="dzu2BiPqzygGuVtwU730-4" value="&lt;b&gt;2&lt;/b&gt;&lt;b&gt;. Security&lt;/b&gt;&lt;div&gt;&lt;div&gt;&lt;b&gt;Token&lt;/b&gt;&lt;/div&gt;&lt;div&gt;&lt;b&gt;Evaluation&lt;/b&gt;&lt;/div&gt;&lt;/div&gt;" style="edgeLabel;html=1;align=center;verticalAlign=middle;resizable=0;points=[];" vertex="1" connectable="0" parent="dzu2BiPqzygGuVtwU730-3">
          <mxGeometry x="0.0612" y="-1" relative="1" as="geometry">
            <mxPoint as="offset" />
          </mxGeometry>
        </mxCell>
        <mxCell id="dzu2BiPqzygGuVtwU730-5" value="Auth0&lt;div&gt;for&lt;/div&gt;&lt;div&gt;Security&lt;/div&gt;" style="rounded=1;whiteSpace=wrap;html=1;fillColor=#d5e8d4;strokeColor=#82b366;" vertex="1" parent="1">
          <mxGeometry x="280" y="310" width="120" height="60" as="geometry" />
        </mxCell>
        <mxCell id="dzu2BiPqzygGuVtwU730-6" value="" style="endArrow=classic;startArrow=classic;html=1;rounded=0;entryX=0;entryY=1;entryDx=0;entryDy=0;fillColor=#f8cecc;strokeColor=#b85450;" edge="1" parent="1" target="n79Byt1YTtOv4_WPGVGu-1">
          <mxGeometry width="50" height="50" relative="1" as="geometry">
            <mxPoint x="150" y="470" as="sourcePoint" />
            <mxPoint x="800" y="400" as="targetPoint" />
            <Array as="points">
              <mxPoint x="150" y="435" />
              <mxPoint x="150" y="420" />
              <mxPoint x="810" y="420" />
            </Array>
          </mxGeometry>
        </mxCell>
        <mxCell id="dzu2BiPqzygGuVtwU730-7" value="Actions / Pull" style="edgeLabel;html=1;align=center;verticalAlign=middle;resizable=0;points=[];" vertex="1" connectable="0" parent="dzu2BiPqzygGuVtwU730-6">
          <mxGeometry x="0.1067" y="2" relative="1" as="geometry">
            <mxPoint as="offset" />
          </mxGeometry>
        </mxCell>
      </root>
    </mxGraphModel>
  </diagram>
  <diagram id="9aHa8CGbCXsjOFQotu-Y" name="Mobile">
    <mxGraphModel dx="1687" dy="1978" grid="1" gridSize="10" guides="1" tooltips="1" connect="1" arrows="1" fold="1" page="1" pageScale="1" pageWidth="850" pageHeight="1100" math="0" shadow="0">
      <root>
        <mxCell id="0" />
        <mxCell id="1" parent="0" />
        <mxCell id="EIk0v8SuYOP8VlUQgl8u-13" style="edgeStyle=orthogonalEdgeStyle;rounded=0;orthogonalLoop=1;jettySize=auto;html=1;exitX=1;exitY=0.25;exitDx=0;exitDy=0;entryX=0.5;entryY=1;entryDx=0;entryDy=0;" parent="1" source="tRoRLaIC1eUhXZ66zW5z-1" target="EIk0v8SuYOP8VlUQgl8u-12" edge="1">
          <mxGeometry relative="1" as="geometry" />
        </mxCell>
        <mxCell id="EIk0v8SuYOP8VlUQgl8u-14" value="&lt;b&gt;Login&lt;/b&gt;" style="edgeLabel;html=1;align=center;verticalAlign=middle;resizable=0;points=[];" parent="EIk0v8SuYOP8VlUQgl8u-13" vertex="1" connectable="0">
          <mxGeometry x="-0.1686" relative="1" as="geometry">
            <mxPoint as="offset" />
          </mxGeometry>
        </mxCell>
        <mxCell id="tRoRLaIC1eUhXZ66zW5z-1" value="Mobile&lt;div&gt;iOS, Android&lt;br&gt;&lt;div&gt;[React Native]&lt;/div&gt;&lt;/div&gt;" style="rounded=1;whiteSpace=wrap;html=1;fillColor=#dae8fc;strokeColor=#6c8ebf;" parent="1" vertex="1">
          <mxGeometry x="40" y="100" width="270" height="220" as="geometry" />
        </mxCell>
        <mxCell id="tRoRLaIC1eUhXZ66zW5z-2" value="&lt;b&gt;Context API&lt;/b&gt;&lt;div&gt;for State management&lt;/div&gt;" style="rounded=0;whiteSpace=wrap;html=1;" parent="1" vertex="1">
          <mxGeometry y="300" width="120" height="60" as="geometry" />
        </mxCell>
        <mxCell id="EIk0v8SuYOP8VlUQgl8u-17" style="edgeStyle=orthogonalEdgeStyle;rounded=0;orthogonalLoop=1;jettySize=auto;html=1;exitX=1;exitY=0.25;exitDx=0;exitDy=0;entryX=0;entryY=0.25;entryDx=0;entryDy=0;" parent="1" edge="1" target="I-uDq6aWXrBSsL4upoky-5">
          <mxGeometry relative="1" as="geometry">
            <Array as="points">
              <mxPoint x="510" y="30" />
              <mxPoint x="920" y="30" />
              <mxPoint x="920" y="120" />
            </Array>
            <mxPoint x="510.03999999999996" y="44" as="sourcePoint" />
            <mxPoint x="930" y="120" as="targetPoint" />
          </mxGeometry>
        </mxCell>
        <mxCell id="7-lxxg9I9kdyLJj7u9d4-2" value="&lt;b&gt;Security&lt;/b&gt;&lt;div&gt;&lt;b&gt;Token&lt;/b&gt;&lt;/div&gt;&lt;div&gt;&lt;b&gt;Evaluation&lt;/b&gt;&lt;/div&gt;" style="edgeLabel;html=1;align=center;verticalAlign=middle;resizable=0;points=[];" vertex="1" connectable="0" parent="EIk0v8SuYOP8VlUQgl8u-17">
          <mxGeometry x="0.0612" y="-1" relative="1" as="geometry">
            <mxPoint as="offset" />
          </mxGeometry>
        </mxCell>
        <mxCell id="yOwh-Uc2tYtvs6lcuNSl-1" value="SSe Server" style="rounded=1;whiteSpace=wrap;html=1;fillColor=#fff2cc;strokeColor=#d6b656;" parent="1" vertex="1">
          <mxGeometry x="620" y="40" width="80" height="320" as="geometry" />
        </mxCell>
        <mxCell id="Jh4M4K63wEo1tjt_P_8m-1" value="&lt;b&gt;Realm&lt;/b&gt;&lt;div&gt;Data storage&lt;div&gt;&amp;amp; offline capability&lt;/div&gt;&lt;/div&gt;" style="rounded=0;whiteSpace=wrap;html=1;" parent="1" vertex="1">
          <mxGeometry x="270" y="300" width="120" height="60" as="geometry" />
        </mxCell>
        <mxCell id="Jh4M4K63wEo1tjt_P_8m-2" value="&lt;div&gt;Firebase Cloud Messaging,&amp;nbsp;&lt;/div&gt;&lt;div&gt;Apple Push Notification&lt;/div&gt;" style="rounded=0;whiteSpace=wrap;html=1;" parent="1" vertex="1">
          <mxGeometry x="140" y="300" width="120" height="60" as="geometry" />
        </mxCell>
        <mxCell id="EIk0v8SuYOP8VlUQgl8u-6" value="&lt;div&gt;&lt;b&gt;Firebase Analytics&lt;/b&gt;&lt;/div&gt;&lt;div&gt;for&amp;nbsp;&lt;/div&gt;&lt;div&gt;monitoring&lt;/div&gt;" style="rounded=0;whiteSpace=wrap;html=1;" parent="1" vertex="1">
          <mxGeometry y="50" width="120" height="60" as="geometry" />
        </mxCell>
        <mxCell id="EIk0v8SuYOP8VlUQgl8u-7" value="&lt;div&gt;&lt;b&gt;Detox/Flipper&lt;/b&gt;&lt;/div&gt;&lt;div&gt;for&amp;nbsp;&lt;/div&gt;&lt;div&gt;e2e testing/debugging&lt;/div&gt;" style="rounded=0;whiteSpace=wrap;html=1;" parent="1" vertex="1">
          <mxGeometry x="270" y="230" width="120" height="60" as="geometry" />
        </mxCell>
        <mxCell id="EIk0v8SuYOP8VlUQgl8u-8" value="&lt;div&gt;&lt;b&gt;Jenkins&lt;/b&gt;&lt;/div&gt;&lt;div&gt;for&lt;/div&gt;&lt;div&gt;CI/CD&lt;/div&gt;" style="rounded=0;whiteSpace=wrap;html=1;" parent="1" vertex="1">
          <mxGeometry x="260" y="50" width="120" height="60" as="geometry" />
        </mxCell>
        <mxCell id="EIk0v8SuYOP8VlUQgl8u-10" value="&lt;div&gt;&lt;b&gt;CalVer&lt;/b&gt;&lt;/div&gt;&lt;div&gt;eg. 2024.4.0&lt;/div&gt;" style="rounded=0;whiteSpace=wrap;html=1;" parent="1" vertex="1">
          <mxGeometry y="130" width="120" height="40" as="geometry" />
        </mxCell>
        <mxCell id="EIk0v8SuYOP8VlUQgl8u-12" value="Auth0&lt;div&gt;for&lt;/div&gt;&lt;div&gt;Security&lt;/div&gt;" style="rounded=1;whiteSpace=wrap;html=1;fillColor=#d5e8d4;strokeColor=#82b366;" parent="1" vertex="1">
          <mxGeometry x="460" y="50" width="120" height="60" as="geometry" />
        </mxCell>
        <mxCell id="dfoqDiUu1jEYBU3psRK7-2" value="&lt;div&gt;&lt;span style=&quot;background-color: initial;&quot;&gt;&lt;b&gt;Material UI&lt;/b&gt;&lt;/span&gt;&lt;br&gt;&lt;/div&gt;" style="rounded=0;whiteSpace=wrap;html=1;" parent="1" vertex="1">
          <mxGeometry y="190" width="120" height="40" as="geometry" />
        </mxCell>
        <mxCell id="dfoqDiUu1jEYBU3psRK7-3" value="&lt;div&gt;&lt;span style=&quot;background-color: initial;&quot;&gt;&lt;b&gt;React Navigation&lt;/b&gt;&lt;/span&gt;&lt;br&gt;&lt;/div&gt;" style="rounded=0;whiteSpace=wrap;html=1;" parent="1" vertex="1">
          <mxGeometry y="240" width="120" height="40" as="geometry" />
        </mxCell>
        <mxCell id="I-uDq6aWXrBSsL4upoky-2" value="Redis Cache" style="image;sketch=0;aspect=fixed;html=1;points=[];align=center;fontSize=12;image=img/lib/mscae/Azure_Cache_for_Redis.svg;" parent="1" vertex="1">
          <mxGeometry x="810" y="160" width="50" height="50" as="geometry" />
        </mxCell>
        <mxCell id="I-uDq6aWXrBSsL4upoky-4" style="edgeStyle=orthogonalEdgeStyle;rounded=0;orthogonalLoop=1;jettySize=auto;html=1;entryX=0.988;entryY=0.456;entryDx=0;entryDy=0;entryPerimeter=0;fillColor=#f8cecc;strokeColor=#b85450;" parent="1" source="I-uDq6aWXrBSsL4upoky-2" target="yOwh-Uc2tYtvs6lcuNSl-1" edge="1">
          <mxGeometry relative="1" as="geometry" />
        </mxCell>
        <mxCell id="0tsZL7lZ5dY_Q9G1nJ7A-1" value="4. Broadcast" style="edgeLabel;html=1;align=center;verticalAlign=middle;resizable=0;points=[];" vertex="1" connectable="0" parent="I-uDq6aWXrBSsL4upoky-4">
          <mxGeometry x="-0.0433" y="-1" relative="1" as="geometry">
            <mxPoint x="-1" as="offset" />
          </mxGeometry>
        </mxCell>
        <mxCell id="I-uDq6aWXrBSsL4upoky-5" value="Api&#39;s" style="rounded=1;whiteSpace=wrap;html=1;fillColor=#fff2cc;strokeColor=#d6b656;" parent="1" vertex="1">
          <mxGeometry x="1000" y="50" width="120" height="280" as="geometry" />
        </mxCell>
        <mxCell id="I-uDq6aWXrBSsL4upoky-6" style="edgeStyle=orthogonalEdgeStyle;rounded=0;orthogonalLoop=1;jettySize=auto;html=1;entryX=1;entryY=0.6;entryDx=0;entryDy=0;entryPerimeter=0;" parent="1" source="I-uDq6aWXrBSsL4upoky-5" target="I-uDq6aWXrBSsL4upoky-2" edge="1">
          <mxGeometry relative="1" as="geometry" />
        </mxCell>
        <mxCell id="lkpw7T5rA_8k_4UOihmf-2" value="3. Publish" style="edgeLabel;html=1;align=center;verticalAlign=middle;resizable=0;points=[];" vertex="1" connectable="0" parent="I-uDq6aWXrBSsL4upoky-6">
          <mxGeometry x="0.0434" y="-2" relative="1" as="geometry">
            <mxPoint as="offset" />
          </mxGeometry>
        </mxCell>
        <mxCell id="EYFl2zlefnwo-Fv2YAdg-1" value="Hub" style="rounded=1;whiteSpace=wrap;html=1;fillColor=#dae8fc;strokeColor=#6c8ebf;" vertex="1" parent="1">
          <mxGeometry x="240" y="459" width="120" height="60" as="geometry" />
        </mxCell>
        <mxCell id="EYFl2zlefnwo-Fv2YAdg-2" style="edgeStyle=orthogonalEdgeStyle;rounded=0;orthogonalLoop=1;jettySize=auto;html=1;exitX=1;exitY=0.5;exitDx=0;exitDy=0;entryX=0.594;entryY=1.005;entryDx=0;entryDy=0;strokeColor=#3399FF;entryPerimeter=0;" edge="1" parent="1" source="EYFl2zlefnwo-Fv2YAdg-4" target="I-uDq6aWXrBSsL4upoky-5">
          <mxGeometry relative="1" as="geometry">
            <mxPoint x="1002" y="420" as="targetPoint" />
          </mxGeometry>
        </mxCell>
        <mxCell id="EYFl2zlefnwo-Fv2YAdg-3" value="2. Update" style="edgeLabel;html=1;align=center;verticalAlign=middle;resizable=0;points=[];" vertex="1" connectable="0" parent="EYFl2zlefnwo-Fv2YAdg-2">
          <mxGeometry x="-0.0027" relative="1" as="geometry">
            <mxPoint y="1" as="offset" />
          </mxGeometry>
        </mxCell>
        <mxCell id="EYFl2zlefnwo-Fv2YAdg-4" value="Web&lt;div&gt;Sockets&lt;/div&gt;&lt;div&gt;Server&lt;/div&gt;" style="rounded=1;whiteSpace=wrap;html=1;fillColor=#fff2cc;strokeColor=#d6b656;" vertex="1" parent="1">
          <mxGeometry x="610" y="460" width="90" height="59" as="geometry" />
        </mxCell>
        <mxCell id="EYFl2zlefnwo-Fv2YAdg-5" value="" style="endArrow=classic;startArrow=classic;html=1;rounded=0;entryX=0;entryY=0.5;entryDx=0;entryDy=0;exitX=1;exitY=0.5;exitDx=0;exitDy=0;" edge="1" parent="1" source="EYFl2zlefnwo-Fv2YAdg-1" target="EYFl2zlefnwo-Fv2YAdg-4">
          <mxGeometry width="50" height="50" relative="1" as="geometry">
            <mxPoint x="410" y="450" as="sourcePoint" />
            <mxPoint x="460" y="400" as="targetPoint" />
            <Array as="points" />
          </mxGeometry>
        </mxCell>
        <mxCell id="EYFl2zlefnwo-Fv2YAdg-6" value="1. Socket Connection" style="edgeLabel;html=1;align=center;verticalAlign=middle;resizable=0;points=[];" vertex="1" connectable="0" parent="EYFl2zlefnwo-Fv2YAdg-5">
          <mxGeometry x="-0.0079" y="-2" relative="1" as="geometry">
            <mxPoint as="offset" />
          </mxGeometry>
        </mxCell>
        <mxCell id="PsP33KHxPC6xVQuQ3p6x-1" style="edgeStyle=orthogonalEdgeStyle;rounded=0;orthogonalLoop=1;jettySize=auto;html=1;strokeColor=#b85450;fillColor=#f8cecc;entryX=0.5;entryY=0;entryDx=0;entryDy=0;" edge="1" parent="1" source="I-uDq6aWXrBSsL4upoky-2" target="EYFl2zlefnwo-Fv2YAdg-4">
          <mxGeometry relative="1" as="geometry">
            <Array as="points">
              <mxPoint x="832" y="410" />
              <mxPoint x="655" y="410" />
            </Array>
            <mxPoint x="832" y="280" as="sourcePoint" />
            <mxPoint x="750" y="440" as="targetPoint" />
          </mxGeometry>
        </mxCell>
        <mxCell id="PsP33KHxPC6xVQuQ3p6x-2" value="4. Broadcast" style="edgeLabel;html=1;align=center;verticalAlign=middle;resizable=0;points=[];" vertex="1" connectable="0" parent="PsP33KHxPC6xVQuQ3p6x-1">
          <mxGeometry x="-0.1823" y="3" relative="1" as="geometry">
            <mxPoint as="offset" />
          </mxGeometry>
        </mxCell>
        <mxCell id="Lp03utHr5915mCg2cu_x-3" style="edgeStyle=orthogonalEdgeStyle;rounded=0;orthogonalLoop=1;jettySize=auto;html=1;entryX=1.007;entryY=0.453;entryDx=0;entryDy=0;entryPerimeter=0;fillColor=#f8cecc;strokeColor=#b85450;" edge="1" parent="1" source="yOwh-Uc2tYtvs6lcuNSl-1" target="tRoRLaIC1eUhXZ66zW5z-1">
          <mxGeometry relative="1" as="geometry" />
        </mxCell>
        <mxCell id="Lp03utHr5915mCg2cu_x-4" value="5.&amp;nbsp;&lt;div&gt;SSE for Notifications&lt;/div&gt;" style="edgeLabel;html=1;align=center;verticalAlign=middle;resizable=0;points=[];" vertex="1" connectable="0" parent="Lp03utHr5915mCg2cu_x-3">
          <mxGeometry x="-0.0393" y="1" relative="1" as="geometry">
            <mxPoint x="-1" as="offset" />
          </mxGeometry>
        </mxCell>
        <mxCell id="Bp_7CZQASDSrifKPdvh4-1" value="" style="endArrow=classic;startArrow=classic;html=1;rounded=0;entryX=0.657;entryY=0.001;entryDx=0;entryDy=0;exitX=0.5;exitY=0;exitDx=0;exitDy=0;entryPerimeter=0;fillColor=#dae8fc;strokeColor=#6c8ebf;" edge="1" parent="1" source="tRoRLaIC1eUhXZ66zW5z-1" target="I-uDq6aWXrBSsL4upoky-5">
          <mxGeometry width="50" height="50" relative="1" as="geometry">
            <mxPoint x="270" y="30" as="sourcePoint" />
            <mxPoint x="930" y="10" as="targetPoint" />
            <Array as="points">
              <mxPoint x="175" y="-5" />
              <mxPoint x="175" y="-20" />
              <mxPoint x="1080" y="-20" />
            </Array>
          </mxGeometry>
        </mxCell>
        <mxCell id="Bp_7CZQASDSrifKPdvh4-2" value="Actions / Pull" style="edgeLabel;html=1;align=center;verticalAlign=middle;resizable=0;points=[];" vertex="1" connectable="0" parent="Bp_7CZQASDSrifKPdvh4-1">
          <mxGeometry x="0.1067" y="2" relative="1" as="geometry">
            <mxPoint as="offset" />
          </mxGeometry>
        </mxCell>
      </root>
    </mxGraphModel>
  </diagram>
  <diagram id="--xO7gN2oSEQxlSelh0K" name="Backend">
    <mxGraphModel dx="1434" dy="746" grid="1" gridSize="10" guides="1" tooltips="1" connect="1" arrows="1" fold="1" page="1" pageScale="1" pageWidth="850" pageHeight="1100" math="0" shadow="0">
      <root>
        <mxCell id="0" />
        <mxCell id="1" parent="0" />
        <mxCell id="tWrVHn5o-vg7240eLn1A-1" style="edgeStyle=orthogonalEdgeStyle;rounded=0;orthogonalLoop=1;jettySize=auto;html=1;" parent="1" source="3mvk68WHzCUYDPD6Wph3-1" target="tWrVHn5o-vg7240eLn1A-2" edge="1">
          <mxGeometry relative="1" as="geometry">
            <mxPoint x="660" y="370" as="targetPoint" />
          </mxGeometry>
        </mxCell>
        <mxCell id="3mvk68WHzCUYDPD6Wph3-1" value="" style="rounded=0;whiteSpace=wrap;html=1;fillColor=#d5e8d4;strokeColor=#82b366;" parent="1" vertex="1">
          <mxGeometry x="212" y="190" width="286" height="360" as="geometry" />
        </mxCell>
        <mxCell id="3mvk68WHzCUYDPD6Wph3-2" value="Hub APIs" style="rounded=1;whiteSpace=wrap;html=1;" parent="1" vertex="1">
          <mxGeometry x="368" y="210" width="120" height="60" as="geometry" />
        </mxCell>
        <mxCell id="3mvk68WHzCUYDPD6Wph3-3" value="Receiver APIs" style="rounded=1;whiteSpace=wrap;html=1;" parent="1" vertex="1">
          <mxGeometry x="228" y="300" width="120" height="60" as="geometry" />
        </mxCell>
        <mxCell id="3mvk68WHzCUYDPD6Wph3-4" value="Admin/License APIs" style="rounded=1;whiteSpace=wrap;html=1;" parent="1" vertex="1">
          <mxGeometry x="228" y="380" width="120" height="60" as="geometry" />
        </mxCell>
        <mxCell id="3mvk68WHzCUYDPD6Wph3-5" value="Hub Telemetry&lt;div&gt;APIs&lt;/div&gt;" style="rounded=1;whiteSpace=wrap;html=1;" parent="1" vertex="1">
          <mxGeometry x="228" y="210" width="120" height="60" as="geometry" />
        </mxCell>
        <mxCell id="Dk0rboqBc2Y39J1Ig4pe-4" style="edgeStyle=orthogonalEdgeStyle;rounded=0;orthogonalLoop=1;jettySize=auto;html=1;entryX=0.5;entryY=1;entryDx=0;entryDy=0;" parent="1" source="3mvk68WHzCUYDPD6Wph3-6" target="Dk0rboqBc2Y39J1Ig4pe-3" edge="1">
          <mxGeometry relative="1" as="geometry" />
        </mxCell>
        <mxCell id="Dk0rboqBc2Y39J1Ig4pe-5" value="Check&lt;div&gt;for&lt;/div&gt;&lt;div&gt;Token&lt;/div&gt;" style="edgeLabel;html=1;align=center;verticalAlign=middle;resizable=0;points=[];" parent="Dk0rboqBc2Y39J1Ig4pe-4" vertex="1" connectable="0">
          <mxGeometry x="0.6085" y="1" relative="1" as="geometry">
            <mxPoint as="offset" />
          </mxGeometry>
        </mxCell>
        <mxCell id="3mvk68WHzCUYDPD6Wph3-6" value="Provisioning&lt;div&gt;APIs&lt;/div&gt;" style="rounded=1;whiteSpace=wrap;html=1;" parent="1" vertex="1">
          <mxGeometry x="368" y="300" width="120" height="60" as="geometry" />
        </mxCell>
        <mxCell id="3mvk68WHzCUYDPD6Wph3-7" value="Scheduling APIs" style="rounded=1;whiteSpace=wrap;html=1;" parent="1" vertex="1">
          <mxGeometry x="368" y="380" width="120" height="60" as="geometry" />
        </mxCell>
        <mxCell id="3mvk68WHzCUYDPD6Wph3-8" value="Firmware APIs" style="rounded=1;whiteSpace=wrap;html=1;" parent="1" vertex="1">
          <mxGeometry x="228" y="460" width="120" height="60" as="geometry" />
        </mxCell>
        <mxCell id="3mvk68WHzCUYDPD6Wph3-9" value="ElasticSearch APIs" style="rounded=1;whiteSpace=wrap;html=1;" parent="1" vertex="1">
          <mxGeometry x="368" y="460" width="120" height="60" as="geometry" />
        </mxCell>
        <mxCell id="3mvk68WHzCUYDPD6Wph3-10" value="Backend" style="text;html=1;align=center;verticalAlign=middle;whiteSpace=wrap;rounded=0;" parent="1" vertex="1">
          <mxGeometry x="325" y="160" width="60" height="30" as="geometry" />
        </mxCell>
        <mxCell id="tWrVHn5o-vg7240eLn1A-2" value="Postgresql" style="shape=cylinder3;whiteSpace=wrap;html=1;boundedLbl=1;backgroundOutline=1;size=15;fillColor=#f8cecc;strokeColor=#b85450;" parent="1" vertex="1">
          <mxGeometry x="670" y="330" width="80" height="120" as="geometry" />
        </mxCell>
        <mxCell id="Dk0rboqBc2Y39J1Ig4pe-3" value="Auth0&lt;div&gt;for&lt;/div&gt;&lt;div&gt;Security&lt;/div&gt;" style="rounded=1;whiteSpace=wrap;html=1;fillColor=#d5e8d4;strokeColor=#82b366;" parent="1" vertex="1">
          <mxGeometry x="520" y="100" width="120" height="60" as="geometry" />
        </mxCell>
      </root>
    </mxGraphModel>
  </diagram>
  <diagram id="bfFsUttBgVaWt3wXDJee" name="Web">
    <mxGraphModel dx="1434" dy="746" grid="1" gridSize="10" guides="1" tooltips="1" connect="1" arrows="1" fold="1" page="1" pageScale="1" pageWidth="850" pageHeight="1100" math="0" shadow="0">
      <root>
        <mxCell id="0" />
        <mxCell id="1" parent="0" />
        <mxCell id="36jgO0vVBzzct0byMyeX-20" style="edgeStyle=orthogonalEdgeStyle;rounded=0;orthogonalLoop=1;jettySize=auto;html=1;entryX=0;entryY=0.5;entryDx=0;entryDy=0;" parent="1" edge="1">
          <mxGeometry relative="1" as="geometry">
            <mxPoint x="150" y="210" as="sourcePoint" />
            <mxPoint x="400" y="90" as="targetPoint" />
            <Array as="points">
              <mxPoint x="150" y="160" />
              <mxPoint x="305" y="160" />
              <mxPoint x="305" y="90" />
            </Array>
          </mxGeometry>
        </mxCell>
        <mxCell id="36jgO0vVBzzct0byMyeX-26" value="Pull" style="edgeLabel;html=1;align=center;verticalAlign=middle;resizable=0;points=[];" parent="36jgO0vVBzzct0byMyeX-20" vertex="1" connectable="0">
          <mxGeometry x="-0.2054" y="-1" relative="1" as="geometry">
            <mxPoint as="offset" />
          </mxGeometry>
        </mxCell>
        <mxCell id="36jgO0vVBzzct0byMyeX-1" value="Web" style="rounded=1;whiteSpace=wrap;html=1;fillColor=#dae8fc;strokeColor=#6c8ebf;" parent="1" vertex="1">
          <mxGeometry x="60" y="210" width="120" height="60" as="geometry" />
        </mxCell>
        <mxCell id="36jgO0vVBzzct0byMyeX-2" value="Web API" style="rounded=1;whiteSpace=wrap;html=1;fillColor=#d5e8d4;strokeColor=#82b366;" parent="1" vertex="1">
          <mxGeometry x="370" y="60" width="120" height="60" as="geometry" />
        </mxCell>
        <mxCell id="36jgO0vVBzzct0byMyeX-3" value="SSE API" style="rounded=1;whiteSpace=wrap;html=1;fillColor=#d5e8d4;strokeColor=#82b366;" parent="1" vertex="1">
          <mxGeometry x="370" y="290" width="120" height="60" as="geometry" />
        </mxCell>
        <mxCell id="36jgO0vVBzzct0byMyeX-5" value="Postgres" style="shape=cylinder3;whiteSpace=wrap;html=1;boundedLbl=1;backgroundOutline=1;size=15;fillColor=#f8cecc;strokeColor=#b85450;" parent="1" vertex="1">
          <mxGeometry x="730" y="210" width="60" height="80" as="geometry" />
        </mxCell>
        <mxCell id="36jgO0vVBzzct0byMyeX-6" style="edgeStyle=orthogonalEdgeStyle;rounded=0;orthogonalLoop=1;jettySize=auto;html=1;entryX=0.5;entryY=0;entryDx=0;entryDy=0;entryPerimeter=0;" parent="1" source="36jgO0vVBzzct0byMyeX-2" target="36jgO0vVBzzct0byMyeX-5" edge="1">
          <mxGeometry relative="1" as="geometry" />
        </mxCell>
        <mxCell id="36jgO0vVBzzct0byMyeX-16" style="edgeStyle=orthogonalEdgeStyle;rounded=0;orthogonalLoop=1;jettySize=auto;html=1;entryX=0.5;entryY=1;entryDx=0;entryDy=0;" parent="1" source="36jgO0vVBzzct0byMyeX-14" target="36jgO0vVBzzct0byMyeX-3" edge="1">
          <mxGeometry relative="1" as="geometry" />
        </mxCell>
        <mxCell id="36jgO0vVBzzct0byMyeX-17" value="broadcast updates" style="edgeLabel;html=1;align=center;verticalAlign=middle;resizable=0;points=[];" parent="36jgO0vVBzzct0byMyeX-16" vertex="1" connectable="0">
          <mxGeometry x="-0.0954" y="-1" relative="1" as="geometry">
            <mxPoint as="offset" />
          </mxGeometry>
        </mxCell>
        <mxCell id="36jgO0vVBzzct0byMyeX-40" value="1.4" style="edgeLabel;html=1;align=center;verticalAlign=middle;resizable=0;points=[];" parent="36jgO0vVBzzct0byMyeX-16" vertex="1" connectable="0">
          <mxGeometry x="-0.6622" y="1" relative="1" as="geometry">
            <mxPoint as="offset" />
          </mxGeometry>
        </mxCell>
        <mxCell id="36jgO0vVBzzct0byMyeX-14" value="" style="image;sketch=0;aspect=fixed;html=1;points=[];align=center;fontSize=12;image=img/lib/mscae/Azure_Cache_for_Redis.svg;" parent="1" vertex="1">
          <mxGeometry x="630" y="350" width="50" height="50" as="geometry" />
        </mxCell>
        <mxCell id="36jgO0vVBzzct0byMyeX-15" value="Redis" style="text;html=1;align=center;verticalAlign=middle;resizable=0;points=[];autosize=1;strokeColor=none;fillColor=none;" parent="1" vertex="1">
          <mxGeometry x="670" y="390" width="50" height="30" as="geometry" />
        </mxCell>
        <mxCell id="36jgO0vVBzzct0byMyeX-24" style="edgeStyle=orthogonalEdgeStyle;rounded=0;orthogonalLoop=1;jettySize=auto;html=1;entryX=0.692;entryY=1.067;entryDx=0;entryDy=0;entryPerimeter=0;" parent="1" source="36jgO0vVBzzct0byMyeX-3" target="36jgO0vVBzzct0byMyeX-1" edge="1">
          <mxGeometry relative="1" as="geometry" />
        </mxCell>
        <mxCell id="36jgO0vVBzzct0byMyeX-25" value="Push" style="edgeLabel;html=1;align=center;verticalAlign=middle;resizable=0;points=[];" parent="36jgO0vVBzzct0byMyeX-24" vertex="1" connectable="0">
          <mxGeometry x="-0.1316" y="-2" relative="1" as="geometry">
            <mxPoint as="offset" />
          </mxGeometry>
        </mxCell>
        <mxCell id="36jgO0vVBzzct0byMyeX-41" value="1.5" style="edgeLabel;html=1;align=center;verticalAlign=middle;resizable=0;points=[];" parent="36jgO0vVBzzct0byMyeX-24" vertex="1" connectable="0">
          <mxGeometry x="-0.3699" y="-4" relative="1" as="geometry">
            <mxPoint as="offset" />
          </mxGeometry>
        </mxCell>
        <mxCell id="36jgO0vVBzzct0byMyeX-27" value="Backend APIs" style="rounded=1;whiteSpace=wrap;html=1;fillColor=#d5e8d4;strokeColor=#82b366;" parent="1" vertex="1">
          <mxGeometry x="370" y="440" width="120" height="60" as="geometry" />
        </mxCell>
        <mxCell id="36jgO0vVBzzct0byMyeX-30" value="" style="endArrow=none;html=1;rounded=0;" parent="1" edge="1">
          <mxGeometry width="50" height="50" relative="1" as="geometry">
            <mxPoint x="90" y="460" as="sourcePoint" />
            <mxPoint x="90" y="270" as="targetPoint" />
          </mxGeometry>
        </mxCell>
        <mxCell id="36jgO0vVBzzct0byMyeX-37" value="1.1" style="edgeLabel;html=1;align=center;verticalAlign=middle;resizable=0;points=[];" parent="36jgO0vVBzzct0byMyeX-30" vertex="1" connectable="0">
          <mxGeometry x="0.1368" y="2" relative="1" as="geometry">
            <mxPoint as="offset" />
          </mxGeometry>
        </mxCell>
        <mxCell id="36jgO0vVBzzct0byMyeX-31" value="" style="endArrow=classic;html=1;rounded=0;entryX=0;entryY=0.4;entryDx=0;entryDy=0;entryPerimeter=0;" parent="1" target="36jgO0vVBzzct0byMyeX-27" edge="1">
          <mxGeometry width="50" height="50" relative="1" as="geometry">
            <mxPoint x="90" y="460" as="sourcePoint" />
            <mxPoint x="140" y="410" as="targetPoint" />
          </mxGeometry>
        </mxCell>
        <mxCell id="36jgO0vVBzzct0byMyeX-32" value="events/actions" style="edgeLabel;html=1;align=center;verticalAlign=middle;resizable=0;points=[];" parent="36jgO0vVBzzct0byMyeX-31" vertex="1" connectable="0">
          <mxGeometry x="-0.0356" y="-1" relative="1" as="geometry">
            <mxPoint as="offset" />
          </mxGeometry>
        </mxCell>
        <mxCell id="36jgO0vVBzzct0byMyeX-33" style="edgeStyle=orthogonalEdgeStyle;rounded=0;orthogonalLoop=1;jettySize=auto;html=1;entryX=0.52;entryY=1.08;entryDx=0;entryDy=0;entryPerimeter=0;" parent="1" source="36jgO0vVBzzct0byMyeX-27" target="36jgO0vVBzzct0byMyeX-14" edge="1">
          <mxGeometry relative="1" as="geometry" />
        </mxCell>
        <mxCell id="36jgO0vVBzzct0byMyeX-34" value="publish updates" style="edgeLabel;html=1;align=center;verticalAlign=middle;resizable=0;points=[];" parent="36jgO0vVBzzct0byMyeX-33" vertex="1" connectable="0">
          <mxGeometry x="-0.2845" y="1" relative="1" as="geometry">
            <mxPoint x="40" y="60" as="offset" />
          </mxGeometry>
        </mxCell>
        <mxCell id="36jgO0vVBzzct0byMyeX-39" value="1.3" style="edgeLabel;html=1;align=center;verticalAlign=middle;resizable=0;points=[];" parent="36jgO0vVBzzct0byMyeX-33" vertex="1" connectable="0">
          <mxGeometry x="0.6638" y="-3" relative="1" as="geometry">
            <mxPoint as="offset" />
          </mxGeometry>
        </mxCell>
        <mxCell id="36jgO0vVBzzct0byMyeX-35" style="edgeStyle=orthogonalEdgeStyle;rounded=0;orthogonalLoop=1;jettySize=auto;html=1;entryX=0.5;entryY=1;entryDx=0;entryDy=0;entryPerimeter=0;" parent="1" edge="1">
          <mxGeometry relative="1" as="geometry">
            <mxPoint x="430" y="532" as="sourcePoint" />
            <mxPoint x="760" y="290" as="targetPoint" />
          </mxGeometry>
        </mxCell>
        <mxCell id="36jgO0vVBzzct0byMyeX-38" value="1.2" style="edgeLabel;html=1;align=center;verticalAlign=middle;resizable=0;points=[];" parent="36jgO0vVBzzct0byMyeX-35" vertex="1" connectable="0">
          <mxGeometry x="-0.3892" y="1" relative="1" as="geometry">
            <mxPoint as="offset" />
          </mxGeometry>
        </mxCell>
        <mxCell id="36jgO0vVBzzct0byMyeX-36" value="" style="endArrow=none;html=1;rounded=0;" parent="1" edge="1">
          <mxGeometry width="50" height="50" relative="1" as="geometry">
            <mxPoint x="430" y="530" as="sourcePoint" />
            <mxPoint x="430" y="500" as="targetPoint" />
          </mxGeometry>
        </mxCell>
      </root>
    </mxGraphModel>
  </diagram>
  <diagram id="rOa0z57MnqEyxUpnhBTA" name="Hub">
    <mxGraphModel dx="946" dy="586" grid="1" gridSize="10" guides="1" tooltips="1" connect="1" arrows="1" fold="1" page="1" pageScale="1" pageWidth="850" pageHeight="1100" math="0" shadow="0">
      <root>
        <mxCell id="0" />
        <mxCell id="1" parent="0" />
      </root>
    </mxGraphModel>
  </diagram>
  <diagram id="KB_YDe2RkDs06WGqvnJc" name="Partner">
    <mxGraphModel dx="946" dy="586" grid="1" gridSize="10" guides="1" tooltips="1" connect="1" arrows="1" fold="1" page="1" pageScale="1" pageWidth="850" pageHeight="1100" math="0" shadow="0">
      <root>
        <mxCell id="0" />
        <mxCell id="1" parent="0" />
      </root>
    </mxGraphModel>
  </diagram>
  <diagram id="k5Pg1Mhx3A4YBAl0Hhk3" name="Mobile">
    <mxGraphModel dx="2899" dy="2166" grid="1" gridSize="10" guides="1" tooltips="1" connect="1" arrows="1" fold="1" page="1" pageScale="1" pageWidth="850" pageHeight="1100" math="0" shadow="0">
      <root>
        <mxCell id="0" />
        <mxCell id="1" parent="0" />
        <mxCell id="U3IpW8m9Dn0bs0FR0XlN-2" value="&lt;b&gt;Styling&lt;/b&gt;" style="rounded=1;whiteSpace=wrap;html=1;fillColor=#f5f5f5;fontColor=#333333;strokeColor=#666666;verticalAlign=top;" parent="1" vertex="1">
          <mxGeometry x="740" y="210" width="200" height="180" as="geometry" />
        </mxCell>
        <mxCell id="uXlh0-Fbf0DPYD_11gvJ-1" value="&lt;b&gt;Testing &amp;amp; Debugging&lt;/b&gt;" style="rounded=1;whiteSpace=wrap;html=1;fillColor=#f5f5f5;verticalAlign=top;fontColor=#333333;strokeColor=#666666;" parent="1" vertex="1">
          <mxGeometry x="280" y="-60" width="440" height="140" as="geometry" />
        </mxCell>
        <mxCell id="uXlh0-Fbf0DPYD_11gvJ-2" value="&lt;b&gt;Data Storage &amp;amp; Offline storage&lt;/b&gt;" style="rounded=1;whiteSpace=wrap;html=1;fillColor=#f5f5f5;verticalAlign=top;fontColor=#333333;strokeColor=#666666;" parent="1" vertex="1">
          <mxGeometry x="-60" y="-50" width="220" height="340" as="geometry" />
        </mxCell>
        <mxCell id="uXlh0-Fbf0DPYD_11gvJ-4" value="&lt;b&gt;Navigation in the application&lt;/b&gt;" style="rounded=1;whiteSpace=wrap;html=1;fillColor=#f5f5f5;verticalAlign=top;fontColor=#333333;strokeColor=#666666;" parent="1" vertex="1">
          <mxGeometry x="-40" y="330" width="220" height="170" as="geometry" />
        </mxCell>
        <mxCell id="uXlh0-Fbf0DPYD_11gvJ-5" value="&lt;b&gt;Push Notifications&lt;/b&gt;" style="rounded=1;whiteSpace=wrap;html=1;fillColor=#f5f5f5;verticalAlign=top;strokeColor=#666666;fontColor=#333333;" parent="1" vertex="1">
          <mxGeometry x="120" y="580" width="230" height="210" as="geometry" />
        </mxCell>
        <mxCell id="U3IpW8m9Dn0bs0FR0XlN-1" value="&lt;b&gt;Analytics&lt;/b&gt;" style="rounded=1;whiteSpace=wrap;html=1;fillColor=#f5f5f5;verticalAlign=top;fontColor=#333333;strokeColor=#666666;" parent="1" vertex="1">
          <mxGeometry x="400" y="590" width="230" height="190" as="geometry" />
        </mxCell>
        <mxCell id="uXlh0-Fbf0DPYD_11gvJ-6" value="&lt;b&gt;Authentication&lt;/b&gt;" style="rounded=1;whiteSpace=wrap;html=1;fillColor=#f5f5f5;verticalAlign=top;fontColor=#333333;strokeColor=#666666;" parent="1" vertex="1">
          <mxGeometry x="695" y="520" width="200" height="160" as="geometry" />
        </mxCell>
        <mxCell id="ibsekvMSTKtsOvUH18zF-12" style="edgeStyle=orthogonalEdgeStyle;rounded=0;orthogonalLoop=1;jettySize=auto;html=1;exitX=0.5;exitY=1;exitDx=0;exitDy=0;entryX=0.5;entryY=0;entryDx=0;entryDy=0;fillColor=#dae8fc;strokeColor=#0000CC;" parent="1" source="ibsekvMSTKtsOvUH18zF-1" target="U3IpW8m9Dn0bs0FR0XlN-1" edge="1">
          <mxGeometry relative="1" as="geometry">
            <mxPoint x="520" y="670" as="targetPoint" />
          </mxGeometry>
        </mxCell>
        <mxCell id="ibsekvMSTKtsOvUH18zF-15" style="edgeStyle=orthogonalEdgeStyle;rounded=0;orthogonalLoop=1;jettySize=auto;html=1;exitX=0.25;exitY=0;exitDx=0;exitDy=0;entryX=1;entryY=0.75;entryDx=0;entryDy=0;fillColor=#dae8fc;strokeColor=#0000CC;" parent="1" source="ibsekvMSTKtsOvUH18zF-1" target="uXlh0-Fbf0DPYD_11gvJ-2" edge="1">
          <mxGeometry relative="1" as="geometry">
            <Array as="points">
              <mxPoint x="393" y="215" />
              <mxPoint x="390" y="215" />
              <mxPoint x="390" y="205" />
            </Array>
          </mxGeometry>
        </mxCell>
        <mxCell id="ibsekvMSTKtsOvUH18zF-19" style="edgeStyle=orthogonalEdgeStyle;rounded=0;orthogonalLoop=1;jettySize=auto;html=1;exitX=0;exitY=0.5;exitDx=0;exitDy=0;fillColor=#dae8fc;strokeColor=#0000CC;entryX=1;entryY=0.5;entryDx=0;entryDy=0;" parent="1" source="U3IpW8m9Dn0bs0FR0XlN-2" target="ibsekvMSTKtsOvUH18zF-1" edge="1">
          <mxGeometry relative="1" as="geometry" />
        </mxCell>
        <mxCell id="ibsekvMSTKtsOvUH18zF-1" value="React Native&lt;div&gt;Application&lt;/div&gt;" style="rounded=1;whiteSpace=wrap;html=1;fillColor=#dae8fc;strokeColor=#6c8ebf;" parent="1" vertex="1">
          <mxGeometry x="340" y="240" width="210" height="200" as="geometry" />
        </mxCell>
        <mxCell id="ibsekvMSTKtsOvUH18zF-2" value="Context API" style="shape=folder;fontStyle=1;tabWidth=80;tabHeight=30;tabPosition=left;html=1;boundedLbl=1;whiteSpace=wrap;fillColor=#ffe6cc;strokeColor=#d79b00;" parent="1" vertex="1">
          <mxGeometry x="-25" y="150" width="150" height="80" as="geometry" />
        </mxCell>
        <mxCell id="ibsekvMSTKtsOvUH18zF-3" value="Detox" style="shape=folder;fontStyle=1;tabWidth=80;tabHeight=30;tabPosition=left;html=1;boundedLbl=1;whiteSpace=wrap;fillColor=#ffe6cc;strokeColor=#d79b00;" parent="1" vertex="1">
          <mxGeometry x="310" y="-40" width="150" height="80" as="geometry" />
        </mxCell>
        <mxCell id="ibsekvMSTKtsOvUH18zF-4" value="Flipper" style="shape=folder;fontStyle=1;tabWidth=80;tabHeight=30;tabPosition=left;html=1;boundedLbl=1;whiteSpace=wrap;fillColor=#ffe6cc;strokeColor=#d79b00;" parent="1" vertex="1">
          <mxGeometry x="540" y="-30" width="150" height="80" as="geometry" />
        </mxCell>
        <mxCell id="ibsekvMSTKtsOvUH18zF-5" value="Realm" style="shape=folder;fontStyle=1;tabWidth=80;tabHeight=30;tabPosition=left;html=1;boundedLbl=1;whiteSpace=wrap;fillColor=#ffe6cc;strokeColor=#d79b00;" parent="1" vertex="1">
          <mxGeometry x="-20" y="10" width="150" height="80" as="geometry" />
        </mxCell>
        <mxCell id="ibsekvMSTKtsOvUH18zF-6" value="React Navigation" style="shape=folder;fontStyle=1;tabWidth=80;tabHeight=30;tabPosition=left;html=1;boundedLbl=1;whiteSpace=wrap;fillColor=#ffe6cc;strokeColor=#d79b00;" parent="1" vertex="1">
          <mxGeometry x="-5" y="390" width="150" height="80" as="geometry" />
        </mxCell>
        <mxCell id="ibsekvMSTKtsOvUH18zF-7" value="Material UI" style="shape=folder;fontStyle=1;tabWidth=80;tabHeight=30;tabPosition=left;html=1;boundedLbl=1;whiteSpace=wrap;fillColor=#ffe6cc;strokeColor=#d79b00;" parent="1" vertex="1">
          <mxGeometry x="760" y="260" width="150" height="80" as="geometry" />
        </mxCell>
        <mxCell id="ibsekvMSTKtsOvUH18zF-8" value="FCM, APN" style="shape=folder;fontStyle=1;tabWidth=80;tabHeight=30;tabPosition=left;html=1;boundedLbl=1;whiteSpace=wrap;fillColor=#ffe6cc;strokeColor=#d79b00;" parent="1" vertex="1">
          <mxGeometry x="150" y="640" width="150" height="80" as="geometry" />
        </mxCell>
        <mxCell id="ibsekvMSTKtsOvUH18zF-9" value="Google Analytics for firebase" style="shape=folder;fontStyle=1;tabWidth=80;tabHeight=30;tabPosition=left;html=1;boundedLbl=1;whiteSpace=wrap;fillColor=#ffe6cc;strokeColor=#d79b00;" parent="1" vertex="1">
          <mxGeometry x="450" y="645" width="150" height="80" as="geometry" />
        </mxCell>
        <mxCell id="ibsekvMSTKtsOvUH18zF-10" value="Auth 0" style="shape=folder;fontStyle=1;tabWidth=80;tabHeight=30;tabPosition=left;html=1;boundedLbl=1;whiteSpace=wrap;fillColor=#ffe6cc;strokeColor=#d79b00;" parent="1" vertex="1">
          <mxGeometry x="720" y="560" width="150" height="80" as="geometry" />
        </mxCell>
        <mxCell id="ibsekvMSTKtsOvUH18zF-13" style="edgeStyle=orthogonalEdgeStyle;rounded=0;orthogonalLoop=1;jettySize=auto;html=1;exitX=0.25;exitY=1;exitDx=0;exitDy=0;entryX=0.5;entryY=0;entryDx=0;entryDy=0;fillColor=#dae8fc;strokeColor=#0000CC;" parent="1" source="ibsekvMSTKtsOvUH18zF-1" target="uXlh0-Fbf0DPYD_11gvJ-5" edge="1">
          <mxGeometry relative="1" as="geometry" />
        </mxCell>
        <mxCell id="ibsekvMSTKtsOvUH18zF-14" style="edgeStyle=orthogonalEdgeStyle;rounded=0;orthogonalLoop=1;jettySize=auto;html=1;exitX=0;exitY=0.75;exitDx=0;exitDy=0;entryX=0;entryY=0;entryDx=150;entryDy=55;entryPerimeter=0;fillColor=#dae8fc;strokeColor=#0000CC;" parent="1" source="ibsekvMSTKtsOvUH18zF-1" target="ibsekvMSTKtsOvUH18zF-6" edge="1">
          <mxGeometry relative="1" as="geometry" />
        </mxCell>
        <mxCell id="ibsekvMSTKtsOvUH18zF-17" style="edgeStyle=orthogonalEdgeStyle;rounded=0;orthogonalLoop=1;jettySize=auto;html=1;exitX=0.75;exitY=0;exitDx=0;exitDy=0;entryX=0.5;entryY=1;entryDx=0;entryDy=0;fillColor=#dae8fc;strokeColor=#0000CC;" parent="1" source="ibsekvMSTKtsOvUH18zF-1" target="uXlh0-Fbf0DPYD_11gvJ-1" edge="1">
          <mxGeometry relative="1" as="geometry">
            <Array as="points">
              <mxPoint x="500" y="240" />
            </Array>
          </mxGeometry>
        </mxCell>
        <mxCell id="ibsekvMSTKtsOvUH18zF-20" style="edgeStyle=orthogonalEdgeStyle;rounded=0;orthogonalLoop=1;jettySize=auto;html=1;exitX=0;exitY=0.25;exitDx=0;exitDy=0;entryX=1;entryY=0.75;entryDx=0;entryDy=0;fillColor=#dae8fc;strokeColor=#0000CC;" parent="1" source="uXlh0-Fbf0DPYD_11gvJ-6" target="ibsekvMSTKtsOvUH18zF-1" edge="1">
          <mxGeometry relative="1" as="geometry">
            <Array as="points">
              <mxPoint x="650" y="560" />
              <mxPoint x="650" y="390" />
            </Array>
          </mxGeometry>
        </mxCell>
        <mxCell id="DCx6YBIlkP-26bgcB2zF-3" value="SSE API" style="rounded=1;whiteSpace=wrap;html=1;fillColor=#f8cecc;strokeColor=#b85450;" parent="1" vertex="1">
          <mxGeometry x="-480" width="150" height="280" as="geometry" />
        </mxCell>
        <mxCell id="DCx6YBIlkP-26bgcB2zF-5" style="edgeStyle=orthogonalEdgeStyle;rounded=0;orthogonalLoop=1;jettySize=auto;html=1;entryX=0;entryY=0;entryDx=0;entryDy=67.5;entryPerimeter=0;" parent="1" source="DCx6YBIlkP-26bgcB2zF-3" target="ibsekvMSTKtsOvUH18zF-2" edge="1">
          <mxGeometry relative="1" as="geometry" />
        </mxCell>
      </root>
    </mxGraphModel>
  </diagram>
</mxfile>
